<?xml version="1.0" standalone="no"?>
<!DOCTYPE svg PUBLIC "-//W3C//DTD SVG 20010904//EN"
 "http://www.w3.org/TR/2001/REC-SVG-20010904/DTD/svg10.dtd">
<svg version="1.0" xmlns="http://www.w3.org/2000/svg"
 width="870.000000pt" height="870.000000pt" viewBox="0 0 870.000000 870.000000"
 preserveAspectRatio="xMidYMid meet">
<metadata>
Created by potrace 1.14, written by Peter Selinger 2001-2017
</metadata>
<g transform="translate(0.000000,870.000000) scale(0.100000,-0.100000)"
fill="#000000" stroke="none">
<path d="M4325 8410 c-3 -5 -11 -8 -16 -5 -5 4 -12 -1 -15 -9 -3 -9 -10 -13
-15 -10 -5 3 -9 -2 -9 -10 0 -10 -6 -13 -16 -9 -10 4 -20 0 -26 -10 -5 -10
-15 -14 -25 -10 -11 4 -14 3 -9 -5 5 -8 0 -12 -13 -12 -12 0 -21 -4 -21 -8 0
-13 -59 -43 -72 -36 -7 4 -8 3 -4 -4 4 -7 1 -12 -9 -12 -10 0 -13 -5 -9 -12 4
-6 3 -8 -4 -4 -6 3 -17 -1 -25 -9 -9 -8 -23 -15 -31 -15 -9 0 -16 -4 -16 -10
0 -5 -9 -10 -21 -10 -13 0 -19 -5 -16 -13 3 -8 -3 -14 -16 -14 -11 -1 -24 -8
-28 -15 -5 -7 -9 -8 -9 -3 0 6 -6 3 -13 -5 -7 -8 -19 -15 -27 -15 -9 0 -14 -8
-13 -19 1 -13 -2 -15 -10 -7 -8 8 -15 7 -26 -3 -9 -8 -23 -16 -31 -18 -22 -5
-39 -22 -32 -33 3 -5 -2 -4 -11 4 -11 9 -17 10 -17 2 0 -6 -11 -16 -25 -23
-13 -6 -22 -15 -19 -19 2 -4 -5 -6 -16 -4 -12 2 -23 -2 -27 -10 -3 -8 -9 -13
-13 -10 -5 3 -15 -2 -23 -10 -9 -8 -20 -15 -26 -15 -5 0 -15 -8 -20 -17 -6
-10 -11 -14 -11 -10 0 5 -13 0 -29 -9 -17 -10 -28 -21 -25 -25 2 -5 -5 -6 -16
-4 -11 2 -20 0 -20 -6 0 -5 -7 -9 -15 -9 -8 0 -15 -5 -15 -11 0 -6 -7 -9 -15
-5 -8 3 -15 1 -15 -4 0 -10 -56 -43 -64 -38 -3 2 -11 -6 -19 -16 -9 -12 -20
-17 -30 -13 -10 4 -16 2 -14 -5 1 -7 -4 -12 -12 -13 -18 0 -27 -25 -9 -25 10
0 9 -3 -2 -10 -11 -7 -11 -10 -2 -10 8 0 10 -5 6 -12 -10 -15 -12 -58 -3 -63
5 -4 4 -80 -1 -80 -1 0 -3 -10 -4 -22 -2 -13 1 -23 6 -23 5 0 4 -10 -3 -21 -9
-17 -8 -20 3 -13 11 6 11 5 -1 -9 -9 -12 -10 -17 -2 -17 7 0 9 -5 5 -12 -12
-19 -12 -48 0 -48 6 0 6 -4 -1 -11 -8 -8 -8 -20 -3 -34 5 -13 6 -26 2 -29 -9
-10 -10 -46 0 -46 5 0 4 -10 -3 -21 -9 -17 -8 -20 3 -13 11 6 11 5 -1 -9 -11
-14 -11 -17 0 -17 9 0 10 -3 4 -8 -13 -9 -14 -52 -1 -52 6 0 6 -4 -1 -11 -8
-8 -8 -20 -3 -35 5 -13 6 -26 1 -28 -9 -6 -8 -36 2 -53 4 -6 2 -15 -4 -19 -8
-5 -7 -9 2 -14 10 -7 10 -11 0 -24 -11 -13 -11 -16 0 -16 12 0 12 -2 0 -9 -11
-7 -11 -9 0 -14 11 -4 11 -6 1 -6 -8 -1 -10 -7 -5 -18 7 -16 9 -49 3 -63 -6
-18 -5 -52 2 -56 5 -3 4 -12 -3 -20 -9 -11 -8 -14 2 -14 11 0 11 -2 -1 -10
-13 -9 -13 -10 0 -10 11 0 12 -2 3 -8 -8 -5 -9 -13 -3 -22 5 -8 5 -21 -1 -32
-7 -12 -6 -18 1 -18 6 0 8 -5 3 -12 -12 -20 -12 -38 -1 -38 6 0 5 -6 -2 -15
-10 -12 -10 -15 1 -15 10 0 11 -2 2 -8 -8 -5 -9 -13 -3 -22 11 -18 -15 -50
-43 -50 -12 0 -17 -5 -14 -14 4 -10 0 -12 -14 -9 -10 3 -19 1 -19 -5 0 -5 -13
-15 -30 -22 -16 -7 -30 -16 -30 -21 0 -5 -3 -8 -7 -8 -22 4 -33 -2 -27 -13 4
-7 4 -10 0 -6 -10 9 -88 -31 -81 -42 3 -5 -4 -6 -15 -3 -14 4 -20 0 -20 -13 0
-9 -3 -14 -7 -11 -3 4 -26 -4 -50 -18 -23 -14 -43 -23 -43 -20 0 3 -6 0 -14
-7 -8 -7 -12 -16 -9 -20 2 -4 -3 -5 -11 -2 -9 3 -16 1 -16 -6 0 -6 -4 -9 -9
-6 -5 3 -12 -1 -15 -10 -3 -8 -11 -12 -17 -8 -6 3 -14 2 -18 -3 -3 -5 -20 -19
-38 -31 -23 -16 -33 -19 -36 -10 -3 8 -6 6 -6 -4 -1 -16 -7 -20 -27 -17 -3 0
-13 -8 -22 -19 -9 -10 -23 -17 -29 -15 -7 3 -13 0 -13 -6 0 -6 -7 -11 -15 -11
-8 0 -15 -4 -15 -10 0 -5 -6 -10 -14 -10 -8 0 -22 -7 -30 -16 -9 -8 -16 -12
-16 -7 0 4 -6 1 -13 -7 -7 -8 -19 -15 -27 -15 -8 0 -13 -7 -12 -15 2 -8 0 -12
-4 -8 -4 4 -13 3 -21 -4 -7 -6 -16 -8 -19 -5 -3 3 -16 -4 -28 -16 -11 -12 -30
-23 -40 -25 -11 -2 -28 -13 -38 -25 -11 -12 -16 -16 -13 -8 5 9 -1 7 -19 -4
-25 -17 -28 -17 -49 1 -21 19 -21 19 -7 -1 12 -17 10 -16 -11 3 -14 12 -29 19
-32 15 -4 -3 -7 1 -7 11 0 9 -4 15 -9 11 -5 -3 -15 1 -23 8 -7 8 -19 12 -27 9
-8 -3 -11 0 -7 7 4 6 1 11 -8 11 -8 0 -16 4 -18 9 -2 5 -12 11 -23 13 -11 1
-28 10 -38 19 -10 9 -39 27 -65 40 -26 13 -50 28 -53 33 -4 5 -11 6 -17 2 -5
-3 -12 1 -16 9 -3 8 -12 15 -20 15 -8 0 -16 4 -18 9 -1 5 -10 11 -18 13 -16 3
-32 14 -62 43 -11 11 -18 14 -14 8 4 -7 3 -13 -2 -13 -6 0 -12 7 -16 15 -3 8
-10 14 -14 13 -13 -4 -102 53 -102 65 0 5 -7 4 -16 -3 -12 -11 -15 -11 -12 1
2 8 -4 14 -12 14 -8 0 -22 8 -31 18 -9 9 -20 17 -24 17 -5 0 -17 8 -28 18 -15
12 -18 13 -12 2 6 -11 3 -10 -12 3 -11 9 -25 17 -31 17 -7 0 -12 4 -12 10 0 5
-14 16 -30 25 -17 9 -30 12 -30 9 0 -4 -11 4 -23 18 -21 23 -25 24 -35 9 -9
-12 -10 -13 -7 -1 3 8 -4 21 -16 28 -17 11 -20 11 -14 0 4 -7 -2 -3 -12 9 -20
25 -83 43 -83 24 0 -7 -4 -10 -9 -7 -4 3 -23 -6 -41 -19 -18 -13 -38 -21 -43
-18 -6 4 -8 0 -4 -11 4 -9 3 -15 -1 -12 -5 3 -20 -1 -35 -9 -14 -7 -28 -11
-31 -7 -3 3 -6 0 -6 -6 0 -7 -18 -20 -40 -29 -22 -10 -40 -21 -40 -25 0 -5 -9
-8 -20 -8 -11 0 -23 -7 -26 -15 -4 -8 -12 -15 -19 -15 -8 0 -21 -7 -29 -16 -9
-8 -20 -12 -26 -9 -5 3 -10 -1 -10 -9 0 -9 -3 -15 -7 -15 -19 3 -34 -2 -29 -9
2 -4 -5 -9 -17 -9 -12 -1 -27 -10 -34 -19 -6 -9 -16 -14 -21 -11 -4 3 -14 -3
-22 -13 -8 -10 -17 -17 -22 -14 -4 3 -11 -1 -14 -10 -3 -8 -11 -13 -19 -10 -7
3 -15 -3 -19 -13 -6 -15 -8 -15 -17 -3 -7 12 -10 11 -15 -7 -6 -20 -16 -28
-28 -20 -2 1 -12 -6 -22 -15 -11 -9 -23 -18 -29 -19 -36 -8 -44 -12 -40 -19 5
-7 -32 -23 -47 -21 -5 1 -8 -3 -8 -8 0 -5 -9 -11 -21 -14 -12 -3 -18 -10 -15
-15 3 -6 -2 -8 -13 -5 -11 3 -21 -2 -24 -11 -4 -9 -16 -16 -27 -16 -11 0 -20
-4 -20 -10 0 -5 -8 -10 -18 -10 -9 0 -23 -9 -30 -20 -7 -12 -18 -17 -29 -13
-10 4 -14 2 -9 -5 3 -6 2 -13 -4 -17 -5 -3 -10 0 -10 7 -1 8 -6 6 -15 -6 -8
-11 -19 -15 -27 -10 -7 4 -10 4 -6 -1 10 -10 -11 -37 -23 -29 -10 6 -11 3 -13
-88 0 -36 1 -64 4 -63 4 2 12 -6 19 -18 11 -18 11 -20 0 -9 -21 20 -24 15 -24
-42 0 -43 3 -53 15 -49 13 4 13 3 0 -9 -15 -13 -23 -121 -9 -112 8 5 21 -27
14 -34 -3 -3 -5 0 -5 6 0 7 -3 12 -7 12 -5 0 -8 -51 -8 -114 0 -63 3 -112 6
-110 9 5 21 -27 14 -34 -3 -3 -5 0 -5 6 0 7 -3 12 -7 12 -5 0 -8 -51 -8 -114
0 -63 3 -112 6 -110 9 5 21 -27 14 -34 -3 -3 -5 0 -5 6 0 7 -3 12 -7 12 -5 0
-8 -24 -8 -54 0 -43 3 -53 15 -49 13 4 13 3 0 -9 -14 -12 -23 -121 -10 -113 4
2 12 -6 19 -18 11 -18 11 -20 0 -10 -7 7 -15 13 -19 13 -4 0 -5 -116 -1 -169
1 -8 8 -11 20 -8 15 3 18 1 14 -11 -4 -10 -2 -13 5 -8 7 4 15 1 18 -8 3 -9 10
-14 14 -11 4 2 18 -4 31 -16 12 -11 29 -17 36 -15 7 3 13 -2 13 -11 0 -9 3
-13 7 -10 3 4 15 0 25 -10 10 -9 21 -13 24 -10 8 8 34 -18 34 -35 0 -10 3 -9
10 2 5 8 10 10 10 4 0 -11 46 -38 65 -39 6 0 18 -9 27 -20 10 -11 17 -16 18
-11 0 5 9 1 20 -9 11 -10 20 -14 20 -9 0 5 10 -2 21 -16 11 -14 18 -19 14 -12
-10 20 9 14 25 -8 8 -11 22 -20 32 -20 10 0 18 -4 18 -10 0 -5 7 -10 15 -10 9
0 18 -6 21 -14 3 -8 12 -12 20 -9 8 3 14 0 14 -6 0 -6 7 -11 16 -11 8 0 22 -7
31 -15 8 -8 19 -12 25 -9 6 4 8 2 5 -3 -8 -13 20 -26 35 -16 6 3 8 1 5 -4 -4
-6 1 -17 10 -24 14 -12 16 -12 9 1 -4 8 -1 7 8 -4 8 -10 19 -15 25 -11 6 3 11
1 11 -5 0 -7 7 -10 15 -6 8 3 14 2 14 -2 -4 -22 3 -30 21 -27 11 2 18 0 15 -6
-6 -8 16 -14 38 -10 5 1 6 -3 2 -9 -3 -5 -1 -10 5 -10 6 0 8 -5 4 -12 -6 -10
-4 -10 8 0 13 10 17 10 22 -3 3 -9 10 -13 16 -10 5 3 10 2 10 -3 0 -5 14 -15
30 -22 17 -7 30 -16 30 -21 0 -5 9 -9 19 -9 10 0 22 -7 25 -16 3 -8 11 -12 17
-8 8 4 9 3 5 -4 -4 -7 -4 -18 1 -24 11 -19 12 -38 2 -38 -6 0 -7 -5 -3 -12 10
-15 10 -61 0 -76 -4 -7 -4 -12 1 -12 4 0 8 -49 8 -110 0 -60 -4 -110 -8 -110
-5 0 -5 -5 -1 -11 10 -16 11 -89 1 -89 -5 0 -5 -5 -1 -12 10 -16 11 -68 1 -68
-5 0 -5 -6 0 -12 10 -17 10 -40 -1 -55 -5 -7 -5 -13 0 -13 5 0 9 -49 9 -110 0
-60 -4 -110 -8 -110 -5 0 -5 -5 -1 -11 10 -16 11 -89 1 -89 -5 0 -5 -5 -1 -12
10 -16 11 -68 1 -68 -5 0 -5 -5 -1 -12 9 -15 10 -116 1 -125 -19 -19 5 -73 32
-73 5 0 17 -10 25 -22 11 -15 16 -18 16 -8 1 13 2 13 13 0 7 -8 19 -16 27 -18
8 -2 21 -11 28 -20 7 -9 15 -16 17 -14 13 6 25 1 19 -10 -4 -6 -3 -8 4 -5 14
9 43 -3 36 -14 -3 -5 4 -9 15 -9 11 0 27 -7 35 -16 9 -8 16 -12 16 -7 0 4 5 1
10 -7 5 -8 13 -15 17 -15 4 -1 18 -6 29 -13 12 -6 25 -8 29 -4 5 4 5 2 2 -4
-8 -13 52 -46 67 -37 5 3 6 1 2 -5 -6 -11 6 -16 27 -13 4 0 7 -4 7 -9 0 -6 7
-10 16 -10 8 0 12 -4 9 -10 -3 -5 -1 -11 4 -11 6 -1 16 -3 21 -4 6 -1 15 -3
21 -4 5 0 7 -6 3 -13 -4 -7 -3 -8 5 -4 7 5 20 -1 32 -15 10 -12 19 -18 19 -14
0 4 8 1 18 -7 19 -16 53 -32 64 -30 5 1 13 -7 20 -17 6 -10 18 -17 25 -14 7 3
13 0 13 -6 0 -6 7 -11 15 -11 8 0 15 -6 15 -12 0 -10 2 -10 9 0 7 11 9 11 14
-2 4 -9 14 -16 22 -16 9 0 14 -4 11 -9 -3 -5 1 -12 10 -15 10 -4 13 -2 9 7 -4
6 0 4 9 -7 8 -10 19 -15 25 -11 6 3 11 -1 11 -10 0 -9 4 -14 9 -10 5 3 16 -1
24 -9 8 -8 17 -12 21 -9 3 4 6 1 6 -5 0 -7 9 -12 20 -12 11 0 20 -7 20 -16 0
-8 4 -13 9 -9 5 3 16 -1 24 -9 8 -8 17 -12 21 -9 3 4 6 1 6 -6 0 -7 5 -9 11
-5 8 5 10 -4 7 -30 -2 -21 0 -36 7 -36 6 0 7 -3 0 -8 -12 -8 -12 -52 -1 -70 4
-6 3 -12 -1 -12 -5 0 -9 -9 -9 -20 0 -11 5 -20 11 -20 6 0 7 -3 0 -8 -5 -4
-10 -16 -10 -27 0 -11 5 -23 10 -27 6 -5 6 -8 -1 -8 -14 0 -13 -32 1 -42 7 -5
7 -8 0 -8 -11 0 -12 -50 -1 -68 4 -7 4 -12 -1 -12 -10 0 -9 -133 1 -149 4 -6
3 -11 -1 -11 -5 0 -9 -9 -9 -20 0 -11 5 -20 11 -20 6 0 7 -3 0 -8 -5 -4 -10
-16 -10 -27 0 -11 5 -23 10 -27 6 -5 6 -8 -1 -8 -14 0 -13 -32 1 -42 7 -5 7
-8 0 -8 -11 0 -12 -50 -1 -68 4 -7 3 -12 -1 -12 -5 0 -9 -9 -9 -20 0 -11 5
-20 11 -20 6 0 7 -3 0 -8 -5 -4 -10 -16 -10 -27 0 -11 5 -23 10 -27 6 -5 6 -8
-1 -8 -14 0 -13 -32 1 -42 7 -5 7 -8 0 -8 -11 0 -12 -50 -1 -68 4 -7 4 -12 -1
-12 -10 0 -8 -154 3 -171 4 -7 3 -10 -3 -6 -6 4 -8 -3 -5 -18 2 -14 8 -22 13
-19 5 3 9 0 9 -6 0 -6 4 -8 10 -5 6 3 10 1 10 -6 0 -7 3 -10 6 -6 3 3 15 -3
27 -14 11 -10 28 -19 38 -19 9 0 19 -7 23 -15 3 -8 15 -15 26 -15 11 0 23 -6
26 -14 3 -8 16 -17 30 -20 13 -4 24 -11 24 -17 0 -6 4 -7 10 -4 5 3 20 -3 32
-14 12 -12 28 -21 35 -21 7 0 13 -4 13 -10 0 -5 7 -10 16 -10 8 0 22 -7 31
-15 8 -8 19 -13 24 -10 5 4 9 2 9 -4 0 -6 14 -17 30 -26 17 -9 30 -13 30 -10
0 6 16 -6 51 -37 13 -12 19 -14 19 -5 0 6 5 4 11 -6 6 -9 14 -15 20 -12 5 4 9
1 9 -4 0 -6 6 -11 13 -11 7 0 23 -9 35 -20 12 -12 22 -18 22 -14 0 3 6 1 13
-5 8 -6 17 -7 21 -3 4 4 6 0 4 -8 -2 -8 3 -14 11 -12 7 1 22 -7 32 -19 10 -12
19 -19 19 -14 0 4 6 2 13 -4 8 -6 16 -9 19 -6 3 3 13 -4 23 -15 10 -11 24 -20
32 -20 7 0 13 -4 13 -9 0 -5 10 -11 23 -13 12 -2 21 -9 19 -16 -1 -8 2 -11 7
-7 10 6 42 -9 73 -33 9 -8 22 -11 29 -6 8 4 10 3 5 -4 -4 -7 8 -18 34 -29 22
-10 40 -21 40 -25 0 -12 46 -10 75 4 14 6 25 15 25 20 0 6 6 8 13 5 6 -2 22 7
35 20 12 13 22 18 22 12 0 -7 6 -5 13 6 9 11 19 15 27 10 9 -5 11 -4 6 3 -4 7
-1 12 7 12 7 0 22 8 33 17 11 10 26 19 34 21 8 2 18 8 21 14 4 6 12 7 18 4 6
-4 15 3 20 16 6 13 10 17 10 9 1 -11 7 -8 22 7 11 12 24 20 29 17 4 -3 10 2
14 10 3 8 12 15 19 15 8 0 24 9 37 20 13 11 29 20 37 20 7 0 13 6 13 13 0 8 4
7 10 -3 8 -13 10 -13 10 2 0 9 5 20 12 24 7 5 8 3 3 -6 -8 -13 44 21 82 53 12
11 26 16 32 12 6 -3 11 -1 11 5 0 6 4 8 10 5 5 -3 15 3 21 14 7 10 18 17 24
14 7 -2 15 4 19 14 6 15 8 15 16 3 8 -13 10 -12 10 2 0 12 6 16 20 13 11 -2
18 0 16 4 -3 5 10 16 29 27 18 10 31 23 27 28 -3 6 1 5 10 -2 13 -10 17 -10
22 3 3 8 12 15 21 15 8 0 15 5 15 11 0 5 4 8 9 4 6 -3 14 3 20 12 6 10 11 14
11 9 0 -5 7 -3 15 4 8 7 15 9 15 6 0 -4 10 2 22 13 11 11 24 18 28 16 5 -3 11
2 14 11 3 8 10 12 16 9 6 -3 13 0 16 9 3 8 12 12 19 10 9 -4 12 1 11 13 -2 10
1 24 7 31 5 6 6 12 1 12 -5 0 -10 16 -10 35 -1 20 3 32 8 29 6 -4 5 4 -2 16
-10 18 -9 24 1 31 11 7 11 9 1 9 -14 0 -13 31 1 41 5 3 1 13 -8 23 -9 9 -12
16 -6 16 6 0 7 7 4 17 -5 11 -3 14 6 8 10 -6 11 -3 1 15 -10 18 -9 24 1 31 8
5 9 9 3 9 -14 0 -13 42 1 52 6 5 6 8 -1 8 -6 0 -11 11 -11 25 0 13 4 22 9 19
6 -4 5 4 -2 16 -10 18 -9 24 1 31 13 8 5 13 -15 10 -5 -1 -4 5 4 13 7 9 9 16
4 16 -5 0 -3 4 4 9 11 6 10 11 -3 25 -9 9 -12 16 -6 16 6 0 7 7 4 17 -5 11 -3
14 6 8 10 -6 11 -3 1 15 -10 18 -9 24 1 31 8 5 9 9 3 9 -14 0 -13 42 1 52 6 5
6 8 -1 8 -6 0 -11 16 -11 35 0 22 4 32 11 28 6 -4 2 4 -9 17 -11 13 -15 20 -8
17 6 -4 14 -3 18 3 3 5 1 10 -5 10 -13 0 -9 32 5 42 6 5 5 8 -2 8 -7 0 -10 7
-7 15 4 9 0 15 -7 16 -8 0 -5 4 6 9 11 5 15 9 9 9 -12 1 -13 59 -1 78 4 6 3
14 -2 17 -10 7 -9 25 2 43 4 6 3 14 -2 18 -13 7 -10 45 4 45 5 0 4 4 -3 9 -8
4 -14 12 -14 16 0 4 6 12 14 16 7 5 8 9 3 9 -13 0 -14 60 0 60 5 0 4 4 -4 9
-12 8 -12 12 -2 25 9 11 10 16 2 16 -6 0 -10 3 -8 8 1 4 -2 8 -7 9 -5 0 -13 8
-18 17 -5 9 -15 13 -25 9 -11 -4 -14 -3 -9 5 5 8 0 12 -13 12 -12 0 -21 5 -21
11 0 6 -6 9 -12 6 -7 -2 -21 5 -30 15 -9 11 -21 17 -27 14 -5 -4 -12 3 -16 14
-3 11 -11 20 -16 20 -6 0 -7 -5 -3 -12 4 -6 -5 -3 -19 8 -15 10 -27 24 -27 29
0 6 -5 3 -10 -5 -8 -13 -10 -13 -10 1 0 17 -26 33 -39 25 -4 -3 -14 4 -21 15
-8 10 -20 19 -27 19 -7 0 -22 9 -33 20 -12 12 -20 15 -20 8 0 -8 -3 -9 -8 -3
-14 20 -63 46 -74 39 -6 -4 -9 -3 -6 2 7 11 -17 35 -26 27 -3 -4 -6 -1 -6 6 0
7 -4 10 -8 7 -5 -3 -28 8 -50 25 -27 20 -42 26 -42 17 -1 -7 -6 -3 -13 10 -7
12 -16 20 -20 16 -3 -4 -9 1 -13 10 -3 9 -17 16 -31 16 -13 0 -22 4 -19 9 3 5
-5 12 -19 15 -14 4 -25 12 -25 19 0 8 -4 7 -10 -3 -8 -13 -10 -12 -10 3 0 15
-6 19 -26 16 -4 0 -10 3 -13 8 -3 4 -26 19 -51 32 -25 14 -48 28 -51 33 -3 5
-15 10 -26 11 -13 0 -19 6 -16 14 4 9 0 11 -11 7 -9 -4 -18 0 -22 9 -3 9 -14
14 -25 12 -12 -3 -17 0 -13 7 5 8 1 9 -10 5 -10 -4 -15 -3 -11 3 4 6 -1 18
-10 27 -9 9 -13 19 -8 22 11 8 12 71 2 71 -5 0 -6 7 -3 15 10 24 10 115 1 115
-4 0 -5 5 -2 11 10 15 12 69 3 69 -4 0 -5 6 -2 14 7 19 10 146 4 146 -3 0 -6
9 -6 20 0 11 3 20 6 20 3 0 5 16 5 35 0 19 -3 35 -7 35 -4 0 -5 7 -2 15 8 20
11 115 4 115 -3 0 -6 9 -6 20 0 11 3 20 6 20 3 0 5 16 5 35 0 19 -3 35 -7 35
-4 0 -3 13 2 28 4 16 4 36 -2 45 -5 10 -5 17 -1 17 4 0 8 16 8 35 0 19 -3 35
-6 35 -4 0 -4 13 1 29 4 15 4 34 0 41 -4 6 -4 26 0 44 4 17 6 40 4 50 -3 19
31 55 52 56 7 0 15 7 18 16 3 9 13 14 20 11 8 -3 17 1 20 10 4 8 13 13 21 9 9
-3 15 0 15 9 0 8 3 15 8 14 17 -3 51 14 46 22 -3 5 4 9 15 9 12 0 21 5 21 11
0 6 6 9 14 6 8 -3 17 1 20 9 3 9 10 12 16 9 5 -3 10 -1 10 5 0 6 5 8 10 5 6
-3 10 1 10 10 0 9 4 14 9 10 5 -3 16 2 24 10 9 8 23 15 31 15 9 0 16 4 16 8 0
5 22 19 50 32 27 13 47 27 44 31 -3 5 2 6 10 3 9 -3 16 -1 16 5 0 6 6 11 14
11 8 0 16 5 18 10 2 6 13 12 25 13 12 0 19 5 17 9 -3 4 2 8 10 8 9 0 24 8 34
18 10 9 25 18 33 20 7 2 17 9 21 15 4 7 8 8 8 3 0 -5 9 -1 19 8 11 10 25 15
30 11 6 -3 11 0 11 7 0 13 43 38 65 38 5 0 18 11 29 24 10 14 24 22 32 19 8
-3 14 0 14 7 0 6 4 9 9 5 6 -3 14 3 20 12 5 10 12 17 15 16 16 -7 28 -1 23 11
-4 9 -1 13 6 10 7 -2 35 7 62 21 28 14 46 25 41 25 -5 0 -3 6 3 14 8 9 8 16 2
20 -6 4 -8 13 -4 21 3 9 -1 15 -8 16 -8 0 -5 4 6 9 11 5 15 9 9 9 -12 1 -13
59 -1 77 3 6 3 14 0 18 -13 12 -12 86 1 79 6 -3 2 4 -9 17 -11 13 -15 20 -8
17 6 -4 14 -3 18 3 3 5 1 10 -5 10 -13 0 -9 32 5 42 6 5 5 8 -2 8 -7 0 -10 7
-7 15 4 9 0 15 -7 16 -8 0 -5 4 6 9 11 5 15 9 9 9 -12 1 -13 59 -1 78 4 6 3
14 -2 17 -10 7 -9 25 2 43 4 6 3 14 -2 18 -13 7 -10 45 4 45 5 0 4 4 -3 9 -8
4 -14 12 -14 16 0 4 6 12 14 16 7 5 8 9 2 9 -13 0 -12 52 1 62 6 5 6 8 -2 8
-11 0 -12 24 -1 35 10 10 -4 45 -16 39 -6 -3 -2 2 8 10 11 9 15 16 10 16 -12
0 -12 29 -1 47 4 6 3 14 -2 18 -6 3 -7 13 -4 22 5 12 3 14 -8 8 -8 -5 -6 0 4
12 13 15 15 23 7 28 -9 6 -9 10 1 16 12 7 12 9 0 9 -11 0 -11 3 0 17 11 13 11
17 1 21 -10 3 -10 7 0 20 11 13 11 14 0 8 -9 -6 -12 -3 -10 10 2 11 7 22 12
26 6 4 5 12 -2 20 -9 11 -9 17 0 26 7 7 8 12 2 12 -13 0 -16 38 -3 45 5 4 5
14 -1 26 -9 15 -7 19 5 19 8 0 15 5 15 10 0 6 7 10 15 10 7 0 19 8 24 18 7 12
10 13 11 3 0 -10 6 -7 19 7 10 12 25 22 34 22 9 0 20 7 25 16 5 9 13 15 18 15
16 -1 44 10 44 19 0 4 18 15 41 24 25 10 37 21 33 28 -5 7 -3 8 5 3 8 -4 25 1
41 14 16 11 34 22 41 23 22 5 48 31 42 42 -4 6 0 5 9 -1 12 -11 18 -9 33 7 10
11 21 17 26 15 4 -3 12 3 18 12 6 10 11 14 11 9 0 -5 7 -3 15 4 8 7 13 15 11
19 -2 3 8 7 22 8 15 0 28 6 30 12 2 6 10 11 18 11 8 0 14 5 14 11 0 5 4 8 9 4
5 -3 16 2 24 10 9 8 20 15 26 15 6 0 11 4 11 9 0 5 10 11 23 13 12 2 21 9 20
15 -2 7 4 10 11 7 8 -3 23 3 34 14 11 11 23 18 26 14 3 -3 6 0 6 7 0 7 4 10 9
6 5 -3 12 -1 16 5 4 6 10 8 15 5 4 -3 11 2 14 11 3 8 10 13 15 10 5 -3 12 1
15 10 3 8 10 12 16 9 5 -3 10 -1 10 5 0 6 4 9 9 5 6 -3 14 3 20 12 6 10 11 14
11 10 0 -5 13 1 28 12 32 22 72 19 72 -6 0 -12 3 -13 14 -4 12 10 17 8 26 -8
6 -12 14 -20 18 -19 12 4 72 -32 72 -43 0 -6 6 -9 12 -7 7 3 19 -1 26 -9 8 -7
18 -11 23 -8 5 4 9 2 9 -3 0 -5 13 -15 30 -22 16 -7 27 -16 24 -21 -3 -5 3 -9
13 -9 11 0 25 -6 32 -12 11 -11 12 -10 6 1 -5 9 -4 12 3 7 7 -4 12 -15 13 -24
0 -11 2 -12 6 -4 3 8 10 6 21 -8 10 -12 27 -22 39 -23 12 0 21 -6 20 -12 -1
-5 6 -9 15 -9 10 1 20 -7 24 -18 5 -16 8 -18 15 -7 6 10 9 11 9 2 0 -7 7 -13
15 -13 8 0 15 -4 15 -10 0 -5 6 -7 14 -4 7 3 16 -2 20 -11 3 -9 10 -14 15 -11
5 3 11 -1 15 -9 3 -8 14 -15 24 -15 10 0 27 -9 37 -20 10 -11 29 -20 42 -20
13 0 22 -5 21 -12 -2 -7 2 -12 7 -13 6 0 20 -6 31 -13 12 -6 25 -8 29 -4 5 4
5 2 1 -5 -3 -7 2 -14 14 -18 11 -3 20 -10 20 -15 0 -5 7 -7 15 -4 8 4 15 1 15
-5 0 -6 7 -11 15 -11 8 0 15 -4 15 -10 0 -5 8 -10 18 -10 10 0 24 -9 32 -19 7
-11 17 -18 21 -15 4 2 15 -3 23 -12 9 -8 16 -13 16 -10 0 3 8 -2 18 -11 10
-10 16 -26 14 -36 -2 -9 1 -24 8 -32 11 -13 10 -14 -5 -9 -14 6 -16 4 -10 -6
12 -20 14 -70 3 -70 -7 0 -7 -5 -1 -12 5 -7 8 -40 7 -73 -2 -34 3 -66 9 -74 9
-11 9 -13 0 -8 -6 4 -14 3 -18 -3 -3 -5 -3 -10 2 -10 4 0 7 -46 6 -102 0 -60
3 -108 9 -116 8 -9 7 -11 -7 -6 -14 6 -16 4 -10 -6 12 -20 14 -70 3 -70 -7 0
-7 -5 -1 -12 5 -7 8 -40 7 -73 -2 -34 3 -66 9 -74 9 -11 9 -13 0 -8 -6 4 -14
3 -18 -3 -3 -5 -3 -10 2 -10 4 0 7 -46 6 -102 0 -60 3 -108 9 -116 8 -9 7 -11
-7 -6 -14 6 -16 4 -10 -6 12 -20 14 -70 3 -70 -7 0 -7 -5 -1 -12 5 -7 8 -39 7
-70 -2 -46 1 -58 13 -58 8 0 21 -7 30 -15 8 -8 19 -13 24 -10 5 4 9 3 9 -2 0
-4 18 -17 40 -27 22 -10 37 -23 33 -29 -4 -6 -1 -7 7 -2 7 4 15 4 19 -1 8 -12
40 -32 74 -47 15 -6 27 -15 27 -19 0 -4 9 -5 19 -3 15 3 18 -1 14 -12 -4 -10
-2 -14 5 -9 6 3 14 1 17 -5 4 -5 13 -8 21 -5 8 3 13 2 11 -2 -1 -4 2 -7 6 -7
5 0 13 -8 18 -17 6 -10 19 -18 29 -18 11 0 20 -4 20 -10 0 -5 3 -9 8 -9 20 3
32 -3 32 -17 0 -10 6 -14 15 -10 8 3 15 1 15 -4 0 -5 7 -6 17 -3 11 4 14 3 9
-5 -4 -7 3 -14 19 -18 14 -3 25 -10 25 -16 0 -5 4 -7 9 -4 5 3 12 -1 15 -10 3
-9 13 -14 20 -11 8 3 16 3 18 -1 2 -4 16 -18 32 -32 16 -14 26 -19 22 -13 -5
9 -2 11 8 7 8 -3 17 -12 20 -20 3 -9 10 -13 15 -10 5 3 14 -1 21 -9 7 -8 17
-15 23 -15 5 0 16 -8 23 -17 13 -17 13 -17 14 2 1 18 2 18 10 -2 5 -13 17 -23
25 -23 9 0 23 -7 32 -15 8 -8 18 -13 23 -10 5 3 12 -4 15 -15 5 -17 10 -19 21
-9 11 9 14 8 14 -5 0 -8 11 -18 25 -22 14 -3 25 -9 25 -13 0 -4 16 -14 35 -21
20 -8 41 -20 47 -28 9 -10 13 -11 19 0 7 10 9 10 9 -1 0 -11 3 -11 15 -1 8 7
15 9 15 5 0 -4 7 -2 15 5 8 7 13 15 11 19 -3 4 3 7 13 8 29 2 106 51 103 64
-2 9 1 9 12 -1 10 -7 16 -8 16 -2 0 6 12 17 28 25 117 63 162 90 162 98 0 5 3
8 8 8 20 -3 32 2 27 12 -4 6 0 9 11 7 11 -2 18 2 17 8 -1 7 8 9 24 6 22 -4 25
-2 19 13 -5 13 -2 16 12 13 18 -5 46 15 35 26 -3 3 4 4 16 1 11 -2 21 1 21 7
0 5 7 7 16 4 8 -3 13 -2 10 3 -3 4 10 16 29 27 18 10 31 22 28 27 -3 6 -1 7 6
3 6 -4 24 0 39 10 15 10 28 16 30 13 2 -2 8 4 14 15 8 15 12 16 19 5 7 -11 9
-10 9 5 0 10 5 16 13 13 14 -5 39 17 30 27 -4 3 3 6 15 6 11 0 27 7 36 15 8 9
19 16 23 17 19 2 39 13 49 26 6 8 16 12 21 9 6 -4 14 0 17 9 4 9 13 14 21 10
9 -3 15 0 15 10 0 8 4 13 8 10 5 -3 18 3 29 14 12 10 24 16 27 13 3 -4 6 -1 6
6 0 7 4 10 9 7 5 -3 9 273 9 654 1 373 -3 658 -8 655 -5 -3 -11 -1 -15 5 -4 6
-11 8 -16 5 -5 -4 -9 -1 -9 4 0 6 -6 11 -14 11 -8 0 -17 7 -20 16 -4 10 -13
13 -26 9 -11 -4 -19 -3 -18 2 2 4 -1 9 -5 10 -4 1 -15 9 -23 18 -9 8 -20 13
-25 10 -5 -4 -9 -1 -9 5 0 6 -4 8 -10 5 -5 -3 -10 1 -10 10 0 9 -4 14 -9 10
-5 -3 -16 2 -24 10 -9 8 -24 16 -34 18 -11 1 -30 12 -43 24 -12 12 -27 20 -32
17 -4 -3 -11 1 -14 10 -3 8 -14 13 -25 11 -11 -2 -17 0 -14 6 4 5 1 9 -5 9 -6
0 -9 4 -6 9 4 5 -2 8 -11 7 -10 -2 -23 2 -30 8 -36 32 -44 37 -53 31 -6 -4
-13 1 -16 9 -3 8 -21 21 -40 28 -19 6 -34 16 -34 20 0 4 -9 8 -19 8 -10 0 -22
7 -25 16 -3 8 -10 12 -16 9 -5 -3 -10 -1 -10 5 0 6 -4 8 -10 5 -5 -3 -10 2
-11 12 0 10 -3 13 -6 6 -3 -9 -13 -5 -30 11 -14 14 -34 23 -44 21 -10 -2 -18
1 -16 8 1 7 -4 11 -10 10 -7 -2 -13 2 -13 7 0 6 -7 10 -15 10 -9 0 -18 7 -22
16 -3 8 -11 13 -18 10 -7 -2 -25 7 -40 20 -16 14 -33 23 -39 21 -6 -2 -19 5
-28 15 -9 11 -22 17 -27 13 -6 -3 -11 1 -11 10 0 9 -4 14 -9 10 -5 -3 -12 -1
-16 5 -4 6 -11 7 -17 4 -7 -4 -8 -2 -4 4 4 8 0 12 -11 12 -10 0 -14 4 -8 8 12
9 14 112 2 112 -4 0 -5 6 -1 12 12 19 12 48 1 48 -5 0 -4 7 3 15 10 12 10 15
-1 15 -9 0 -10 3 -4 8 6 4 10 37 10 75 0 53 -3 67 -15 67 -13 0 -13 2 -1 9 17
11 22 151 6 151 -7 0 -7 3 0 8 12 9 14 72 2 72 -4 0 -5 6 -1 12 12 19 12 48 1
48 -5 0 -4 7 3 15 10 12 10 15 -1 15 -9 0 -10 3 -4 8 6 4 10 37 10 75 0 53 -3
67 -15 67 -13 0 -13 2 -1 9 17 11 22 151 6 151 -7 0 -7 3 0 8 12 9 14 72 2 72
-4 0 -5 6 -1 12 12 19 12 48 1 48 -5 0 -4 7 3 15 10 12 10 15 -1 15 -9 0 -10
3 -4 8 6 4 10 13 9 20 -1 6 -2 21 -3 32 0 11 -8 20 -16 20 -8 0 -15 4 -15 9 0
6 -9 8 -20 6 -11 -2 -18 0 -15 5 3 4 -9 13 -26 19 -21 7 -28 15 -23 23 6 10 4
10 -8 0 -13 -10 -18 -10 -24 -1 -5 8 -3 10 7 4 10 -6 11 -5 3 4 -6 6 -21 13
-34 16 -13 2 -33 14 -45 25 -12 11 -28 20 -37 20 -9 0 -19 7 -22 16 -3 8 -10
13 -15 10 -5 -3 -11 1 -15 9 -3 8 -12 12 -21 9 -8 -3 -15 -2 -15 4 0 5 -13 15
-30 22 -16 7 -30 16 -30 21 0 5 -3 8 -7 7 -5 -1 -22 5 -39 15 -17 9 -35 13
-38 9 -4 -3 -4 1 -1 10 5 13 2 15 -15 11 -14 -4 -20 -1 -18 8 2 8 -4 13 -14
11 -9 -1 -22 6 -28 18 -6 11 -14 19 -18 19 -21 -3 -32 2 -26 13 4 6 3 8 -4 4
-6 -3 -13 -2 -17 4 -3 5 -14 10 -23 10 -10 0 -25 9 -35 20 -10 12 -22 18 -27
15 -6 -3 -10 -3 -10 2 0 9 -61 39 -73 35 -4 -1 -6 4 -5 10 2 7 -3 12 -9 10 -7
-1 -13 3 -13 9 0 8 -5 7 -15 -1 -13 -11 -14 -10 -10 2 4 10 -4 19 -24 28 -17
7 -31 16 -31 20 0 5 -10 6 -22 3 -19 -4 -20 -3 -8 6 14 10 7 16 -14 12 -4 -1
-14 6 -22 16 -9 12 -13 13 -14 5 0 -7 -11 -1 -25 14 -14 15 -25 21 -25 14 0
-9 -5 -7 -15 6 -8 10 -15 15 -15 11 0 -5 -7 -1 -16 7 -20 21 -80 21 -88 1 -3
-8 -12 -15 -21 -15 -8 0 -15 -5 -15 -11 0 -5 -4 -7 -10 -4 -5 3 -10 0 -10 -7
0 -8 -9 -14 -20 -15 -26 -2 -71 -38 -62 -49 4 -5 0 -3 -9 3 -12 10 -18 8 -29
-7 -8 -11 -22 -20 -32 -20 -10 0 -18 -4 -18 -9 0 -9 -32 -24 -55 -26 -5 0 -9
-6 -7 -13 2 -10 -17 -17 -40 -13 -13 2 -9 -17 5 -22 6 -3 -1 -4 -18 -4 -20 1
-29 -2 -27 -11 1 -8 -2 -11 -7 -8 -5 4 -13 1 -16 -5 -4 -5 -14 -8 -22 -5 -8 3
-11 1 -8 -4 3 -5 -6 -12 -20 -16 -14 -3 -25 -11 -25 -16 0 -6 -6 -8 -14 -5 -8
3 -17 -1 -20 -9 -3 -8 -12 -14 -21 -14 -8 0 -15 -5 -15 -11 0 -5 -4 -7 -10 -4
-5 3 -10 1 -10 -4 0 -6 -7 -11 -15 -11 -8 0 -15 -4 -15 -10 0 -5 -9 -10 -20
-10 -10 0 -23 -7 -28 -16 -5 -9 -13 -16 -18 -16 -19 -1 -34 -10 -28 -19 3 -5
-2 -6 -10 -3 -9 3 -16 1 -16 -5 0 -6 -7 -8 -17 -4 -9 4 -14 2 -10 -3 3 -6 -10
-16 -29 -23 -22 -8 -34 -18 -30 -26 3 -8 -2 -11 -12 -8 -10 2 -28 -6 -42 -19
-13 -13 -27 -22 -30 -21 -10 5 -40 -8 -40 -18 0 -5 -3 -8 -7 -7 -5 1 -30 -10
-56 -26 l-48 -29 -22 21 c-12 11 -31 22 -42 24 -11 2 -19 10 -17 17 1 7 -2 10
-7 6 -9 -5 -46 10 -61 25 -3 3 -17 11 -32 19 -15 8 -24 19 -21 25 4 6 -2 4
-12 -4 -10 -8 -16 -10 -13 -5 4 6 -8 17 -25 25 -18 7 -43 21 -56 32 -13 10
-27 15 -32 12 -5 -3 -9 2 -9 11 0 9 -4 13 -10 10 -5 -3 -10 -1 -10 5 0 6 -4 8
-10 5 -5 -3 -10 -1 -10 4 0 6 -9 11 -20 11 -11 0 -20 4 -20 9 0 5 -13 14 -30
21 -16 7 -30 17 -30 22 0 5 -4 7 -9 3 -5 -3 -16 2 -25 11 -9 8 -25 16 -35 17
-11 0 -18 4 -15 8 2 4 -5 10 -16 14 -11 3 -20 11 -20 17 0 5 -5 8 -12 6 -7 -3
-19 2 -28 9 -8 7 -18 12 -22 11 -4 -2 -14 6 -23 17 -9 11 -14 13 -10 5 4 -9 0
-7 -9 4 -8 10 -20 15 -27 10 -8 -4 -10 -3 -5 4 4 7 1 12 -9 12 -9 0 -13 5 -10
10 4 6 3 10 -2 9 -24 -4 -43 3 -43 15 0 10 -7 12 -22 8 -14 -3 -19 -2 -14 6 4
7 1 12 -6 12 -8 0 -29 11 -48 25 -18 13 -37 22 -41 19 -5 -3 -9 0 -9 5 0 6 -7
11 -16 11 -9 0 -12 5 -8 12 4 7 3 8 -4 4 -6 -4 -19 1 -29 11 -21 21 -78 29
-88 13z m-4275 -2984 c0 -3 -4 -8 -10 -11 -5 -3 -10 -1 -10 4 0 6 5 11 10 11
6 0 10 -2 10 -4z m0 -240 c0 -3 -4 -8 -10 -11 -5 -3 -10 -1 -10 4 0 6 5 11 10
11 6 0 10 -2 10 -4z m-4 -532 c1 -9 0 -13 -4 -10 -3 4 -7 14 -8 22 -1 9 0 13
4 10 3 -4 7 -14 8 -22z"/>
<path d="M3905 650 c-3 -5 -1 -10 4 -10 6 0 11 5 11 10 0 6 -2 10 -4 10 -3 0
-8 -4 -11 -10z"/>
</g>
</svg>
