<svg version="1" xmlns="http://www.w3.org/2000/svg" width="1157.333" height="1157.333" viewBox="0 0 868.000000 868.000000"><path d="M429 31.8c-1.4 1-4 2.4-5.7 3.1-1.9.8-3 1.8-2.6 2.4.4.6 0 .8-1 .4-1-.3-1.7-.2-1.7.3s-.9.7-2 .5c-1.1-.2-1.8 0-1.5.6.4.5.1.9-.5.9s-.8.4-.5 1c.6 1-.3 1.3-3.7 1.3-1 0-1.6.3-1.4.6.3.4-.9 1.4-2.5 2.3-2 1.2-2.9 1.3-3 .5 0-.7-.4-.2-1 1.1-.5 1.3-1.3 2-1.9 1.7-.5-.3-1-.1-1 .5s-.4.9-.9.6c-.5-.3-1.2.1-1.5 1-.3.8-1 1.2-1.6.9-.6-.3-1.6 0-2.4.7-3.1 3-5.5 4.6-5.9 4.1-.3-.2-1.5.2-2.8.9-2.3 1.3-3.3 2-6.3 4.5-.8.7-2.2 1.3-3.1 1.3-.8 0-1.5.5-1.5 1.1 0 .5-.4.7-1 .4-.5-.3-1-.1-1 .5s-.4.9-.9.6c-.5-.3-1.2.1-1.5.9-.3.8-.9 1.5-1.3 1.4-2-.3-3.4.2-2.8 1.1.5.9-1.5 1.5-3.7 1.1-.5 0-.8.3-.8.9 0 .5-.6 1-1.4 1-.8 0-1.7.7-2 1.6-.3.8-1 1.3-1.5 1-.5-.3-1.2.1-1.5 1-.3.8-1.1 1.4-1.8 1.3-2-.3-4.9 1.2-4.2 2.2.3.5-.3.9-1.2.9-1 0-2.8 1-4.1 2.2-2.2 2.1-2.4 2.1-1.8.3.4-1.4.2-1.2-.9.5-.8 1.4-1.5 1.9-1.6 1.1 0-.8-.8-.4-2 1-1 1.3-1.9 2-2 1.5 0-.6-.7-.1-1.6 1-.8 1-1.3 1.2-.9.4.4-1 .2-.9-.8.2-.8 1-1.7 1.5-2.1 1.1-.4-.4-1-.3-1.4.2-.4.6-1.8 1.7-3.1 2.6-2.4 1.5-3.9 6.9-1.9 6.9.6 0 .5.6-.3 1.6-1 1.3-1 1.7 0 2.4.9.5 1 1.3.5 2.1-1.2 2-1.4 3.8-.3 4.5.6.3.5 1.1-.2 2-.9 1.1-.9 1.4.1 1.4.9 0 .9.4.2 1.3-.7.8-.7 1.8-.2 2.7.6.9.5 1.8-.3 2.3-.9.7-.9 1 0 1.4 1 .3 1 1 .1 2.6-1.3 2.6-1.3 2.7.2 3.7.8.5.9 1.3.4 2.1-1.2 1.9-1.2 4.9-.1 4.9.5 0 .4.7-.3 1.5-1 1.2-1 1.5 0 1.5.9 0 .9.4.2 1.3-.7.8-.7 1.8-.2 2.7.5.9.5 1.9-.2 2.7-.7.9-.7 1.3.1 1.3.9 0 .9.5.1 2s-.8 2 .2 2 1 .2-.1.9c-.9.6-1 1.1-.2 1.5.6.4.8 1.3.4 1.9-1.1 1.8-1.1 4.7 0 4.7.5 0 .4.7-.3 1.5-1 1.2-1 1.5 0 1.5s1 .3 0 1.5c-.9 1.1-.9 1.5-.1 1.5.7 0 .9.5.5 1.2-1.2 1.9-1.2 4.8-.1 4.8.5 0 .4.7-.3 1.5-1 1.2-1 1.5 0 1.5s1 .3 0 1.5c-.9 1.1-.9 1.5-.1 1.5.7 0 .9.5.5 1.2-1.2 1.9-1.2 4.8-.1 4.8.5 0 .4.7-.3 1.5-1 1.2-1 1.5 0 1.5s1 .3 0 1.5-1 1.5.1 1.5c1 0 1 .3.2 1.1s-.8 2-.3 3.4c.5 1.3.6 2.6.3 2.9-.9.9-.9 7.6 0 7.6.5 0 .5.5.1 1.2-1.1 1.8-1.1 8.8.1 8.8.5 0 .3.5-.5 1-.9.6-1.1 1-.3 1 .7 0 1 .7.7 1.5-.4.8-1 1.3-1.4 1-.4-.3-1.3.2-2 1s-1.6 1.2-2.1.9c-.5-.3-.9 0-.9.5 0 .6-.6 1.1-1.4 1.1-.7 0-2.1 1-3 2.2-.9 1.3-1.4 1.6-1 .9.5-.9-.4-.7-2.3.7-1.7 1.2-3.3 1.9-3.6 1.5-.4-.3-.9.2-1.3 1.1-.3.9-1.2 1.6-2 1.6s-1.4.5-1.4 1.1c0 .6-.6.9-1.4.6-.8-.3-1.7.1-2 .9-.3.8-.9 1.3-1.3 1.2-1.3-.4-9.4 4.8-8.6 5.6.4.4 0 .4-1 0-1-.3-1.7-.1-1.7.6 0 .6-.4.9-.9.5-.5-.3-1.2-.1-1.6.5-.4.6-1.1.7-1.7.4-.6-.4-.8-.3-.5.2.3.6-2.3 2.5-5.9 4.4-3.5 1.8-6.4 3.7-6.4 4.2s-.5.6-1 .3c-.6-.3-1.3 0-1.6.9-.3.8-1.2 1.2-1.9 1-.8-.3-2.2.4-3.2 1.5-.9 1.2-2.1 2.1-2.6 2.1s-2.3 1-4 2.2c-1.8 1.3-2.8 1.6-2.3.7.4-.7.1-.6-.7.3-.8 1-1.9 1.8-2.6 1.8-.6 0-1.1.4-1.1 1 0 .5-.9 1-2 1s-2 .4-2 .9c0 1-3.8 2.4-5.9 2.1-.8-.1-1.1.4-.8 1.4.4 1-.3 1.7-2.4 2.1-1.6.4-2.9 1-2.9 1.3 0 .4-1.5 1.4-3.3 2.2-1.7.7-4 2.2-5.1 3.1-1.6 1.6-2.1 1.6-4.1.3-1.2-.8-2.5-1.1-3-.7-.4.5-.5.2-.1-.5s.1-1.2-.8-1.2-1.6-.4-1.6-.9-1.1-1.2-2.5-1.5c-1.4-.4-2.5-1.1-2.5-1.6s-.9-.7-2-.5c-1.1.2-1.9-.1-1.7-.8.1-.7-.6-1.1-1.5-1.1-1 .1-1.6-.1-1.4-.5.2-.3-.2-1.2-1-1.9-1-.9-1.4-1-1.4-.1 0 .7-.8.3-1.7-.7-1-1-2.4-2-3.2-2.2-.7-.1-2-.9-2.8-1.7-.8-.9-1.9-1.3-2.4-1-.5.4-.9.2-.9-.3 0-1-6-3.8-7.2-3.4-.5.1-.8-.4-.8-1.1 0-1.7-4.7-4-6.2-3.1-.7.4-.8.2-.4-.4.6-1.1-.5-1.6-2.6-1.3-.4 0-.5-.6-.2-1.4.5-1.1.2-1.3-1-.9-.9.3-1.6.1-1.6-.5s-.9-1.1-1.9-1.1c-1.1 0-2.1-.5-2.3-1-.2-.6-1.3-1.2-2.5-1.3-1.2 0-2-.4-1.7-.8.2-.4-.2-1.2-1-1.8-1.1-.9-1.5-.9-1.9.1-.4.8-.6.7-.6-.5-.1-1-.9-1.7-2-1.7s-2.3-.5-2.6-1.1c-.4-.6-1.3-.8-2.1-.5-.8.3-1.3.2-1.3-.2.3-1.8-.2-3.2-1.2-3.2-.5 0-.7.5-.4 1.1.4.6-.2.5-1.4-.3-1.2-.7-2.1-1.6-2.1-2 0-.5-.7-.8-1.5-.8s-1.5-.5-1.5-1c0-.6-.9-1-1.9-1-1 0-2.2-.7-2.5-1.6-.3-.8-1-1.3-1.5-.9-.6.3-1.3-.1-1.8-.9-.4-.8-1-1.4-1.3-1.4-1.8.3-5-1.6-5-3 0-1.5-.2-1.5-1-.2-.7 1.1-1 1.1-1 .2 0-1.2-5.6-3.9-7.2-3.4-.5.1-.7-.4-.5-1 .1-.8-1.1-1.3-3.1-1.4-2.3-.2-3.6.4-4.7 1.9-.8 1.2-1.5 1.6-1.5.9 0-1-.3-1-1.4 0-.8.7-1.1 1.7-.8 2.3.3.5.1.7-.3.2-.5-.4-1.9 0-3.2.8-1.3.9-2.3 1.2-2.3.8 0-.5-.5 0-1.1 1-.6.9-1.4 1.5-2 1.2-.5-.4-.9-.1-.9.5s-.5.8-1 .5c-.6-.3-1-.1-1 .5s-.5.8-1.2.4c-.8-.5-.9-.2-.4 1.1.5 1.4.3 1.5-.6.7-1.5-1.1-4.2 1-3 2.4.4.5-.2.2-1.2-.6-1.8-1.4-1.9-1.3-1.3.3.4 1.1.3 1.6-.3 1.2-.6-.3-2.3.3-3.9 1.4-1.6 1.2-3.4 2.1-4 2.1-.6 0-1.1.5-1.1 1.1 0 .6-.7.9-1.5.5-.8-.3-1.5-.1-1.5.5s-.6.7-1.2.3c-.8-.5-.7 0 .2 1.1.9 1.2 1 1.6.2 1.1-1.3-.8-7.2 1.3-7.2 2.6 0 .5-.9.8-2.1.8-1.1 0-1.8.4-1.5.9.3.5-.8 1.4-2.4 2.1-1.7.7-3 1.6-3 2 0 .3-.7.7-1.5.8-.8.1-2.2.3-3 .4-.8.1-1.2.5-1 .9.3.4-2 1.9-5 3.4-3 1.4-5.3 3-5 3.5.3.5-.4.7-1.5.5-1.2-.2-2.3.2-2.7 1-.3.8-1.4 1.5-2.4 1.5s-1.9.4-1.9.9-.9 1.3-2 1.6c-1.2.4-1.7 1.1-1.4 1.8.5.9.3.9-.6 0-1.1-1-1.8-.8-3.5 1.1-1.1 1.2-2.6 2.1-3.3 1.8-.7-.2-1.2.1-1.2.7s-.7 1.1-1.5 1.1c-.9 0-1.8.7-2.1 1.5-.4.8-1 1.3-1.4 1-.4-.3-1.1.2-1.4 1.1-.3.8-1 1.3-1.6.9-.9-.6-5.2 1.7-7.8 4.2-.8.7-1.7 1.1-2.1.8-.9-.5-.6 9.8.3 11.3.3.6.1 1.2-.5 1.4-.7.2-.7 1.2 0 3.1.8 2 .7 2.7-.2 2.7-.8 0-.7.4.3 1 .8.5 1 1 .4 1-1.1 0-1.1 7.1.1 8.9.3.6.1 1.1-.6 1.1s-.4.7.7 1.5c1.1.9 1.3 1.3.4 1-1.2-.4-1.5.5-1.5 4.9 0 3 .3 5.2.8 4.9.4-.2.7.1.7.6 0 .6-.3 1.1-.7 1.1-.5 0-.8 1.3-.8 2.9 0 1.6.3 2.7.6 2.5.4-.2.6.7.5 2.1 0 1.4-.3 2.5-.6 2.5s-.5 1.8-.5 3.9c0 2.2.3 3.4.7 2.8.4-.7.6.3.5 2-.1 1.8-.5 3.3-.8 3.3-.7 0-.4 6.9.4 7.6.3.3.3 1.3 0 2.2-.5 1.1-.2 1.3.8.8.8-.4.6-.1-.4.7-1.4 1.2-1.5 2-.8 4 .7 1.7.7 2.7 0 2.9-.7.2-.7 1.2 0 3.1.8 2 .7 2.7-.1 2.7-.7 0-.3.7.8 1.5 1.2 1 1.3 1.3.3 1-1.2-.5-1.5.2-1.3 3.4.1 2.2.5 4.4.9 5 .3.6 0 1.1-.7 1.1-.9 0-.9.3.2 1 .8.5 1.1 1 .5 1-.5 0-1 1.1-1 2.4 0 1.3.3 2.2.7 2 .4-.2.9 0 1.3.6.3.5 0 1-.7 1-1.8 0-1.6 10.3.3 12.7 1.2 1.5 1.2 1.6-.3 1.1-1.1-.5-1.5-.2-1.3 1 .2.9.4 2.1.4 2.5.1.5.5.6 1 .3s.8.2.7 1.2c0 .9.5 1.6 1.1 1.5.7-.2 1.3.2 1.3.8 0 .5.4.8.8.5.5-.3 1.4.4 2.2 1.4.8 1 1.7 1.7 2.1 1.4.4-.2 1.8.6 3 1.8 1.2 1.3 1.9 1.6 1.5.8-.4-.8 0-.6.8.4.9 1.1 1.9 1.7 2.2 1.3.4-.3 1.3.1 2.1.9s1.9 1.2 2.4.9c.5-.4.9.1.9 1s.5 1.3 1 1c.6-.3 1-.2 1 .3 0 .9 3.7 2.5 5.3 2.3.4-.1.7.4.7 1.1 0 .6.3.9.6.5.4-.3 1.3.1 2.1.9s1.9 1.2 2.4.8c.5-.3.8 0 .7.8-.2.7.3 1.2.9 1.1.7-.2 1.3.2 1.3.7 0 .6.7 1 1.6 1 .9 0 2.5 1 3.5 2.2 1.1 1.1 1.9 1.8 1.9 1.3 0-.4 1.1 0 2.5.9s3 1.4 3.6 1.1c.5-.4.8-.1.7.6-.2.7.2 1.3.9 1.4.7 0 1.9.9 2.7 2 1.2 1.5 1.6 1.6 1.6.5 0-1.2.3-1.1 1.1.2.5 1 1.7 1.8 2.4 1.8.8 0 1.5.5 1.5 1.1 0 .5.4.8.9.5.4-.3 1.9.3 3.1 1.4 1.2 1.1 2.7 1.7 3.3 1.3.6-.3.7-.1.3.5-.6 1.1.6 1.6 2.6 1.3.5 0 .8.4.8.9 0 .6.6 1 1.4 1 .8 0 1.7.6 1.9 1.2.4.9.6.8.6-.2.1-.9.9-.3 2.1 1.5 1.1 1.6 2 2.4 2 1.6 0-1.1.4-.9 1.6.5.8 1 1.3 1.2.9.4-.4-.9.2-.6 1.2.5s2.5 2.1 3.2 2.3c.7.1 2 1 2.8 1.8.9.8 2.2 1.3 3 1 .8-.3 1.1-.1.8.4-.6.9.8 1.4 2.8 1.1.4 0 .7.4.7 1 0 .5.5.7 1 .4.6-.3 1 0 1 .8 0 1.7 2.7 3 4.2 2 .7-.3.8-.1.4.5-.4.7-.1 1.2.8 1.2s1.3.7 1.1 2c-.2 1.1-.1 2.2.3 2.4.9.6.8 4.8-.1 6.3-.4.7-.4 1.4.1 1.7.8.5.7 9.8-.2 12.2-.3.8-.2 1.4.3 1.4 1.1 0 .9 7.3-.3 8.1-.5.4-.5 1.3-.1 2 1 1.6 1.3 13.7.3 16.5-.3 1.1-.2 2.7.2 3.4.5.8.5 1.9-.1 2.6-.6.7-.6 1.5-.1 1.7.8.6.7 11-.2 13.4-.3.7-.2 1.3.2 1.3 1 0 .9 6.4-.2 7.1-.5.4-.5 1.3 0 2 .4.7.7 4.9.6 9.4-.3 10.2-.3 9.6.1 12.5.2 1.4 0 3.7-.4 5.2s-.3 2.8.2 3c.7.2.6 1.4 0 3.1-1.8 4.7-1.3 6.6 2.2 8.7 1.7 1 3.5 1.8 3.8 1.7.4-.1 1.6.6 2.6 1.6 1.1.9 2.2 1.4 2.6 1.1.3-.3 1.1.4 1.7 1.6.7 1.2 1.8 1.9 2.6 1.6.8-.3 1.4-.1 1.4.5s1 .8 2.3.4c1.5-.4 1.8-.3.9.3-1 .7-.6 1.2 1.7 2.2 1.7.7 3.1 1.6 3.1 2.1s.9.9 2 .9 2 .4 2 .8 1.9 1.8 4.3 3c5.5 2.9 8 4.5 8.9 5.7.4.5.8.6.8.1 0-.4 1.1-.1 2.5.8s2.5 1.4 2.5 1c0-.3.9.4 2.1 1.7 1.1 1.3 1.8 1.7 1.4.9-.6-1.3-.5-1.3.7 0 .7.8 2.5 2.1 4.1 2.9 1.5.8 2.7 1.8 2.7 2.3 0 .5.4.7.9.3.5-.3 1.6.1 2.4.9.8.8 1.7 1.2 2.1.9.3-.4.6-.1.6.6s.5.9 1 .6c.6-.3 1-.1 1 .4 0 .6.3 1 .8 1 2-.3 3.2.2 2.9 1.3-.1.7.4 1.2 1.2 1 .8-.2 1.7.1 2 .5 1 1.4 7.1 4.5 7.1 3.6.1-.4.6.2 1.3 1.4.7 1.2 1.4 2.1 1.7 2.1 1.3-.3 10.8 4.7 10.4 5.4-.3.4.3.8 1.3.8s2.7.7 3.7 1.5 2.3 1.2 2.8.9c.5-.3.7 0 .6.8-.2.7.3 1.2 1 1.1.6-.2 1.2.2 1.2.7 0 .6.7 1 1.6 1 .9 0 1.2.5.8 1.2-1 1.6-.9 21.2.1 22.8.5.7.4 1.1-.1.7-.5-.3-.9 4.6-.9 11.4 0 6.5.4 11.9.8 11.9.5 0 .5.5.1 1.1-1 1.6-.9 37.3.1 38.9.5.7.4 1.1-.1.7-1.3-.7-1.2 22.6.1 23.5.7.5.7.8 0 .8-.9 0-1.3 10.7-.4 11.2 3.1 1.9 5.1 2.8 6.3 2.8.8 0 1.6.7 2 1.5.3.8 1.2 1.5 2.1 1.5.8 0 1.5.5 1.5 1 0 .6.3.9.8.8 1.5-.5 7.2 2.5 7.2 3.8 0 .8.3 1.3.8 1.2.4-.1 1.7.3 2.8 1 1.2.6 2.4.8 2.8.5.3-.3.6-.2.6.4 0 .6.9 1.3 2.1 1.6 1.4.4 1.8 1 1.3 1.9-.4.7-.4 1 .1.6.4-.4 2-.1 3.5.7 1.5.8 3.1 1.1 3.5.7.5-.4.5-.1.1.5-.4.8-.1 1.3.7 1.3.8 0 1.8.7 2.1 1.6.3.9 1.3 1.4 2 1.1.8-.3 1.7.1 2 .9.3.9 1 1.3 1.5 1 .5-.3 1.4.1 2.1.9.6.7 1.9 1.1 2.7.8 1.1-.4 1.4-.2.9.5-.4.7-.1 1.2.9 1.2.9 0 1.3.4 1 1-.3.5 0 .7.8.4.8-.3 1.7.2 2.1 1.1.3 1 1.2 1.5 2.1 1.1.8-.3 1.5-.2 1.5.3 0 .8 3.8 2.4 5.3 2.2.4-.1.6.2.5.6-.2.5-.1.8.2.8.3 0 1.9 1 3.7 2.3 1.7 1.2 3.6 2.2 4.3 2.2.6 0 .8.4.5 1-.4.6.5 1 2 1 1.4 0 2.8.7 3.1 1.5.4.8 1 1.2 1.5.9.5-.3.9 0 .9.6s.5.8 1 .5c.6-.3 1.3 0 1.6.8.3.9 1.6 1.8 3 2.1 1.3.4 2.4 1.1 2.4 1.6s.9.7 2 .5c1.1-.2 1.8 0 1.5.6-.4.5.1.9.9.9.9 0 1.6.5 1.6 1.1 0 .5.4.8.9.5.5-.3 1.2.1 1.5 1 .5 1.3.9 1.4 2.2.3.8-.7 1.4-.8 1.3-.3-.4 2 .2 3.5 1.1 2.9.5-.3 1.7.3 2.7 1.5 1.8 2.1 8.3 2.9 8.3.9 0-.5.4-.8.9-.4.5.3 1.2.1 1.6-.5.4-.6 1-.8 1.5-.5.4.3 1.1-.2 1.4-1.1.3-.8 1-1.2 1.6-.9.5.3 1 .2 1-.2 0-.5 1-1.3 2.3-1.8 1.2-.6 2.1-1.7 1.9-2.5-.2-1 0-1.1 1.1-.2 1 .9 1.8.8 3.3-.6 2.7-2.4 10.4-6.5 10.4-5.5.1.4.6-.1 1.3-1.2.7-1.1 1.9-2 2.7-2 .8 0 1.4-.5 1.3-1.2-.1-.6.5-1 1.4-.9 1.6.3 2.5-.2 5.7-3.1.8-.7 1.6-.9 2-.6.3.4.6.1.6-.5 0-.7.6-1.1 1.3-1 .6.2 1.1-.3.9-1-.1-.8.1-1.1.6-.8 1.1.7 6.2-1.6 6.2-2.7 0-.5.4-.6.9-.3s1.1-.1 1.5-.9c.3-.8 1.2-1.5 2.1-1.5.8 0 1.5-.5 1.5-1.1 0-.5.5-.7 1-.4.6.3 1 .1 1-.5s.4-.9.9-.5c.5.3 1.7-.2 2.5-1.1.9-.8 1.6-1.2 1.6-.7 0 .4.6.1 1.3-.8.7-.9 1.7-1.7 2.2-1.9 2.8-.8 5.4-2.4 5-3.1-.3-.4.4-.5 1.5-.2 1.2.3 2.2-.1 2.6-1.1.3-.9 1.2-1.6 2-1.6s1.4-.5 1.4-1.1c0-.5.5-.7 1-.4.6.3 1 .1 1-.4 0-.6.9-1.1 1.9-1.1 1 0 2.2-.7 2.5-1.6.3-.8 1-1.3 1.6-.9.9.6 1.9 0 5.7-3.5.9-.8 1.8-1.3 1.9-1 .2.3 1.1-.2 2.1-1 2.2-1.9 2.2-1.9 5.1-2.6 1.2-.4 2.2-1.1 2.2-1.7 0-.6.3-.7.7-.4.3.4 1.2.2 2-.4 1.1-1 1.1-1.5.1-2.7-1-1.3-1-1.4 0-.8 1.1.7 1.7-.6 1.2-2.9-.7-3.1-.6-4.1.3-5.3.6-.8.6-1.2 0-1.2-1.3 0-1.1-4.3.2-5.2.6-.5.5-.8-.2-.8s-1.3-.7-1.3-1.5.6-1.5 1.3-1.5c.7 0 .8-.3.2-.8-1.4-.9-1.4-8.5-.1-9.4.7-.5.7-.8.1-.8-1.2 0-1.3-8.9-.1-10.8.4-.7.3-1.2-.3-1.2s-.8-1.7-.5-4.1c.4-3.1.2-3.9-.8-3.4-.7.3-.4-.1.6-.9 1.1-.9 1.5-1.6 1-1.6s-1-2-1-4.5.5-4.5 1.1-4.5c.7 0 .7-.3 0-.8-.6-.4-1-5.5-1-11.7 0-6.2.4-11.3 1-11.7.7-.5.7-.8 0-.8-.6 0-.9-4.5-.9-11.7.1-6.5-.2-12.6-.7-13.5-.8-1.4-.6-1.6.8-1.1s1.5.3.6-.7c-.6-.7-.9-1.8-.6-2.5.2-.8-.1-2.3-.7-3.5-.7-1.3-.8-2-.2-1.6 1.4.9 2-5.9.6-7.2-.7-.6-1.5-.8-1.8-.5-.3.4-.6-.1-.6-1.1 0-1.4-.4-1.5-2-.6-1.1.6-1.9.7-1.8.3.2-.4-.2-.9-.7-1.1-.6-.2-1.4-1-1.8-1.8-.4-.8-1.4-1.4-2.2-1.4-.8 0-2.3-1-3.5-2.2-1.1-1.2-2-1.6-2-.9 0 .7-.9.4-2.2-.8-1.1-1.1-2.5-1.8-2.9-1.6-.4.3-1-.3-1.3-1.3-.4-1-1.3-2-2.1-2.1-.8-.1-2.4-.2-3.4-.3-1.1-.1-1.9-.5-1.9-.8.2-2-.4-3-1.2-2.5-.6.4-2.7-.6-4.7-2.1s-3.3-2.1-2.9-1.3c.4.8 0 .5-.8-.5-1.1-1.4-1.6-1.6-1.6-.6 0 .9-.6.6-1.6-.8-.8-1.2-2-2-2.5-1.7-.5.4-.9 0-.9-.8 0-.7-.7-1.4-1.5-1.5-.8-.1-2.1-.3-2.9-.4-.8-.1-1.4-.6-1.3-1.2.1-.6-.4-1-1-.9-.7.2-1.3-.2-1.3-.8 0-.5-.4-.7-1-.4-.5.3-1.7-.3-2.7-1.4-.9-1.1-2-1.8-2.5-1.5-.4.3-.8 0-.8-.5 0-.6-.7-1.1-1.6-1.1-.9 0-1.2-.5-.8-1.2.4-.6.3-.8-.4-.5-1.4.9-4.3-.3-3.6-1.4.3-.5-.7-.9-2.1-.9-1.5 0-2.4-.4-2-1 .3-.6-.3-1-1.4-1-1.2 0-2.1-.5-2.1-1 0-.6-.9-1-1.9-1-1.1 0-2.3-.9-2.6-2.1-.5-1.6-1-1.8-2.1-.8-1.1.9-1.4.8-1.4-.5 0-.9-.3-1.5-.7-1.4-.5.1-1.8-.3-3-1-1.3-.7-2.3-.9-2.3-.5s-.7-.3-1.6-1.5c-.8-1.2-2.2-2.2-3-2.2-.8 0-1.4-.4-1.4-.8 0-.5-.7-.9-1.5-1-.8-.1-2.1-.3-2.9-.4-.8-.1-1.2-.8-.8-1.6.3-.9.1-1.3-.4-.9-.5.3-2.4-.7-4.2-2.3-1.8-1.6-2.9-3.1-2.4-3.4.8-.5.6-7.9-.3-10.4-.2-.6-.1-1.2.3-1.2.8 0 .6-10.9-.2-11.7-.2-.3-.1-1.6.4-2.9.6-1.6.6-2.4-.1-2.4-.6 0-.7-.5-.3-1.2.9-1.4.8-16.3-.1-17.8-.3-.5-.2-1 .3-1 .8 0 .6-7.3-.3-9.8-.2-.6-.1-1.2.3-1.2.9 0 .6-10.9-.2-11.8-.3-.3-.1-1.1.5-1.8.7-.8.7-1.4 0-1.8-.6-.4-.7-1.5-.2-2.9.5-1.4.5-3 0-4-.6-1-.6-1.7-.1-1.7.9 0 .9-6.7-.1-7.6-.3-.4-.2-1.6.3-2.8.4-1.3.4-2.9-.1-3.9-.6-.9-.6-1.7-.1-1.7.4 0 .7-3.2.5-7.2-.2-6.2 0-7.3 1.9-8.9 1.1-1 2.4-1.7 2.7-1.4.4.2 1.3-.5 2.1-1.5s1.7-1.7 2.2-1.4c.4.3.8.1.8-.3 0-.5 1.6-1.5 3.5-2.2 1.9-.7 3.5-1.6 3.5-2.1s.7-.7 1.5-.3c1 .3 1.5 0 1.3-.8-.2-.7.3-1.4 1-1.5.6-.1 1.7-.2 2.3-.3.5 0 .7-.6.3-1.3-.5-.8-.2-.9 1-.5 1 .4 1.9.1 2.2-.8.4-.8 1-1.3 1.4-1 1.2.8 4.1-.6 3.4-1.6-.3-.5.2-.9 1-.9.9 0 1.6-.4 1.6-1 0-.5.7-.6 1.7-.3 1.1.4 1.4.3.9-.5-.4-.7-.1-1.2.8-1.2s2.5-.9 3.5-1.9c1.4-1.4 2.1-1.6 2.5-.8.3.9.5.9.5-.1.1-.6.6-1.2 1.2-1.2.7 0 1.8-.8 2.6-1.8.9-1 1.2-1.1.7-.2-.4.8.5.4 1.9-.9 1.5-1.4 2.7-2 2.7-1.5s.4.4.8-.3c.4-.6 1.4-1.3 2.2-1.5.8-.2 2.5-1.3 3.8-2.6 1.2-1.3 2.2-1.8 2.2-1.2 0 .6.5.8 1 .5.6-.4.7-1.1.4-1.7-.4-.6-.2-.8.4-.4.6.3 1.3.2 1.7-.4.4-.6 1-.8 1.5-.5.4.3 1-.2 1.4-1 .3-.9 1.2-1.2 2.2-.8 1.1.4 1.5.2 1.1-.4-.4-.6.4-1.4 1.8-1.7 1.4-.4 2.3-1.1 2-1.6-.4-.6.1-.7 1.1-.3 1.3.5 1.5.3.9-.7s-.4-1.2.8-.7c1 .3 1.7.3 1.7-.1s.9-1.3 2.1-2c1.7-1.1 2-1.1 1.4 0-.3.7.1.4 1-.7s2.1-1.9 2.6-1.7c.5.1 1.2-.4 1.5-1.2.3-.8 1.1-1.3 1.9-1 .7.3 1.5-.2 1.9-1.1.3-.9 1.4-1.5 2.3-1.3 1.2.2 1.8-.3 1.7-1.4-.1-1 .4-1.4 1.3-1.1.7.3 2.3-.3 3.4-1.3 1.2-1.1 2.3-1.8 2.5-1.7 1.1.7 2.4.2 1.9-.7-.3-.5 0-.7.8-.4 1.2.4 1.4-2.5 1.3-18.1-.1-11.5.3-18.7.9-18.9.7-.3.7-.5 0-.5-.6-.1-.9-4.6-.9-11.8.1-6.5-.2-12.6-.7-13.5-.8-1.4-.6-1.6.8-1.1s1.5.3.6-.7c-.6-.7-.9-1.8-.6-2.5.2-.8-.1-2.3-.7-3.5-.9-1.7-.9-2.1 0-1.5.8.5 1.1.1.9-1.1-.2-1.1 0-2.5.4-3.2.5-.7.3-1.2-.3-1.2s-.8-.5-.5-1c.3-.6.1-1-.5-1s-.8-.5-.5-1c.4-.6 1.1-.7 1.7-.4.7.5.8.2.3-.7-1.3-2-1.3-4.9-.1-4.9.5 0 .1-.6-.9-1.4-1.8-1.3-1.8-1.3.1-2.4 1-.6 1.3-1.2.7-1.2-.7 0-1.3-.5-1.3-1.1 0-.5.6-.7 1.3-.3.9.6.9.4-.1-.8-1-1.2-1-1.8-.1-2.3.8-.6.8-1-.2-1.5-1-.7-1-1.2 0-2.3.9-1.2.9-1.6-.1-1.9-1-.4-1-.8.1-2.1 1.1-1.4 1.1-1.7 0-1.7-1.2 0-1.2-.2-.1-.9 1.1-.6 1-1-.3-1.5-1.4-.5-1.5-.9-.5-2.1.7-.8.9-1.5.4-1.5-.4 0-.3-.5.4-1.2.6-.6.8-1.8.4-2.7-.4-.9-.7-2.3-.6-3.1.1-.8.2-2.5.3-3.6.1-2.1 3.4-5 6.2-5.6 2.1-.5 3.7-2.2 3.1-3.2-.3-.5.2-.6 1.2-.3 1 .4 1.9.1 2.3-.9.3-.8 1.2-1.3 1.9-1 .7.3 1.8-.3 2.3-1.2.6-.9 1.1-1.4 1.1-1 0 .4 2.4-.8 5.4-2.7 2.9-1.9 5.6-3.1 6-2.8.3.4.6-.2.6-1.3 0-1.4.2-1.6.9-.5.7 1 1.2.8 2.5-1 .9-1.3 1.8-2.3 2.1-2.2.9.3 6.5-2.2 6.5-3 0-.4.5-.5 1-.2.6.3 1 .1 1-.5 0-.9 4.9-3.4 5.9-3 .2.1.7-.4 1.2-1.2.5-.7 1.4-1.3 2.1-1.3.7-.1 1.2-.6 1-1.3-.1-.7.1-1.1.5-1 1.5.4 10.3-3.5 9.8-4.3-.5-.6 3.5-2.5 4.3-2 .7.4 2.9-2.5 2.4-3.3-.3-.5 0-.6.6-.2 1.2.7 4.8-.8 7-3.1.8-.7 1.8-1.1 2.3-.8.5.4.9.1.9-.4 0-.6.9-1.1 2-1.1s1.9-.6 1.8-1.3c-.2-.7.6-1.2 1.9-1.1 1.4.1 2.5-.6 2.8-1.7.4-1.1 1.2-1.6 2.1-1.2.7.3 1.4 0 1.4-.6s.7-1.1 1.5-1.1 1.5-.5 1.5-1.2c0-.6.3-.9.6-.5.4.3 1.3 0 2.1-.8 1.9-2 3.5-1.9 6 .4 1.6 1.5 2.3 1.7 3.2.8.7-.7 1.2-.8 1.1-.2-.5 2.3.1 3.6 1.2 2.9.6-.4 1.7.1 2.5 1.1.9 1.4 1.3 1.5 1.3.4.1-1 .3-.9 1.1.4.6.9 1.4 1.5 2 1.2.5-.4.9.1.9 1s.4 1.4.9 1c.5-.3 1.7.2 2.5 1.1.9.8 1.6 1.3 1.6.9 0-.3 1 .1 2.3 1 1.3.8 2.7 1.3 3 1 .4-.3.5-.2.2.1-.4.7 1.9 3.4 3 3.4.3 0 .3-.6-.1-1.3-.4-.6.4-.2 1.8 1 1.3 1.3 3 2.3 3.6 2.3.7 0 1.2.4 1.2 1 0 .5.7 1 1.5 1s1.5.4 1.5.8c0 .5 1.6 1.4 3.5 2.2 1.9.8 3.5 1.8 3.5 2.2 0 .5.5.6 1 .3.6-.3 1-.1 1 .5s.5.8 1 .5c.6-.3 1-.1 1 .4 0 .6.7 1.1 1.5 1.1s1.5.5 1.5 1.1c0 .5.5.7 1 .4.6-.3 1-.1 1 .5 0 .7.5 1 1.2.8.7-.3 2.3.6 3.6 1.9 1.2 1.2 3.4 2.6 4.7 2.9 1.4.3 2.5 1 2.5 1.5s.9.9 2 .9 2.3.7 2.6 1.5c.4.8 1 1.2 1.5.9.5-.3.9 0 .9.5 0 .6.6 1.1 1.4 1.1.7 0 2.5.9 3.9 2s3.3 2 4.2 2c.9 0 1.3.4 1 1-.3.5.3 1 1.4 1 1.2 0 2.1.4 2.1 1 0 .5.9 1 1.9 1 1 0 2.2.7 2.5 1.6.3.8 1 1.2 1.6.9.5-.3 1-.2 1 .4 0 .5.8 1.2 1.9 1.6 3.1.9 5.7 3.9 5.3 5.9-.3 1.3 0 1.6 1 1.1.7-.3.4.1-.6.9-1.1.9-1.5 1.6-1 1.6.6 0 .9 1.5.8 3.2-.1 1.8.2 3.9.8 4.6.8 1 .7 1.1-.7.6-1.3-.5-1.6-.4-1.1.5 1.1 1.7 1.4 11.1.3 11.1-.4 0-.5.5-.2 1 .4.6 1.2.8 1.8.4.7-.3.3.2-.7 1-1.1.9-1.5 1.6-1 1.6.6 0 .9 1.5.8 3.2-.1 1.8.2 3.9.8 4.6.8 1 .7 1.1-.7.6-1.3-.5-1.6-.4-1.1.5 1.1 1.7 1.4 11.1.3 11.1-.4 0-.5.5-.2 1 .4.6 1.2.8 1.8.4.7-.3.3.2-.7 1-1.1.9-1.5 1.6-1 1.6.6 0 .9 1.5.8 3.2-.1 1.8.2 3.9.8 4.6.8 1 .7 1.1-.7.6-1.3-.5-1.6-.4-1.1.5 1.1 1.7 1.4 11.1.3 11.1-.4 0-.5.5-.2 1 .4.6 1.2.8 1.8.4.7-.3.3.2-.7 1-1.1.9-1.5 1.6-1 1.6.6 0 .9 1.5.8 3.2-.1 1.8.2 3.9.8 4.6.8 1 .7 1.1-.7.6-1.3-.5-1.6-.4-1.1.5 1.1 1.7 1.4 11.1.3 11.1-.4 0-.5.5-.2 1 .4.6 1.2.8 1.8.4.7-.3.3.2-.7 1-1.1.9-1.5 1.6-1 1.6.6 0 .9 1.5.8 3.2-.1 1.8.2 3.9.8 4.6.8 1 .7 1.1-.7.6-1.3-.5-1.6-.4-1.1.5 1.1 1.7 1.4 11.1.3 11.1-.4 0-.5.4-.2 1 .3.5 1.5 1 2.6 1 1.3 0 1.8.4 1.3 1.2-.5.7-.2.9.9.5.8-.3 2.1.1 2.7.8.7.8 1.6 1.2 2.1.9.5-.3.9-.1.9.4 0 .6 1.1 1.3 2.5 1.6 1.4.4 2.5 1.1 2.5 1.6 0 .6.5 1 1.1 1 .6 0 1.7.7 2.6 1.5.8.8 1.9 1.3 2.4 1 .5-.4.9-.1.9.5s.5.8 1 .5c.6-.3 1 .1 1 1.1 0 1.1.6 1.5 2 1.1 1.3-.3 2 0 2 .9 0 .8.3 1.4.8 1.5 3 .3 4.7 1 5.4 2.3.5.9 1.8 1.6 2.9 1.6 1.1 0 1.7.5 1.4 1-.4.6-.3.9.2.8 1.6-.5 10.3 4.5 9.6 5.5-.4.6 0 .8 1 .4s2 0 2.6 1.1c.7 1 1.1 1.2 1.1.4 0-1 .3-1 1.4 0 .8.7 1.2 1.6.9 2.1-.2.4-.1.6.4.5 1.5-.4 5.3 1.3 4.8 2.2-.3.4.3.7 1.2.6 1-.2 2.3.2 3 .8 3.3 2.9 4.8 4.1 5.3 4.2 1.5.1 10 4.9 10 5.6 0 .4.9.8 2 .8s2 .3 2 .8c0 .4 1.8 1.5 4 2.5 2.2.9 4 2.2 4 2.7 0 .6.6 1 1.4.8.8-.2 2.2.6 3.1 1.7.9 1.1 1.3 1.3.9.5s.4-.5 1.8.7c1.3 1.3 3 2.3 3.6 2.3.7 0 1.2.6 1.2 1.2 0 .9.4.8 1-.2.7-1.1 1-1.1 1-.2 0 .7.5 1 1 .7.6-.4.9-.1.8.6-.2.7.3 1.4 1 1.5.6.1 1.5.3 2 .4 1.7.5 4.5-.3 6.3-1.8 1.1-.9 2.2-1.6 2.5-1.4.2.1 1.2-.4 2-1.3.9-.8 2-1.3 2.5-1 .5.4.9.1.9-.4 0-.6.5-1.1 1.2-1.1s2.5-1.2 4.1-2.8c1.7-1.5 2.7-2 2.3-1.2-.6 1.2-.5 1.2.6-.1.7-.9 1.9-1.4 2.6-1.2.6.3 1.2-.3 1.2-1.3 0-.9.3-1.4.6-1.1 1.1 1 4.5-1.3 3.8-2.5-.4-.6-.3-.8.4-.4 1.6 1 6.5-1.4 10.7-5.2.7-.6 1.7-1.2 2.2-1.2 1.6 0 6.3-2.5 6.3-3.3 0-.5.4-.6.9-.3s1.1-.1 1.5-.9c.3-.8 1.3-1.5 2.1-1.5.9 0 1.3-.4 1-1-.3-.6.1-.7.9-.4.9.3 1.6.1 1.6-.5s.6-.8 1.3-.6c.6.3 2.5-.6 4.1-2 1.6-1.3 3.3-2.2 3.9-1.8.6.3.7.1.3-.5-.6-1.1.5-1.6 2.6-1.3.4 0 1.2-.9 1.8-2 .7-1.2 1.8-1.8 2.6-1.5.8.3 1.4.1 1.4-.5s.8-.8 1.7-.5c1 .4 1.4.4 1 0-.4-.4 1.8-2.1 4.8-3.9 3.1-1.7 5.2-3.5 4.8-4-.4-.5 0-.3 1 .4 1.5 1.2 1.7 1.1 1.7-.3 0-1 .5-1.4 1-1.1.6.3 1 .2 1-.4 0-.6 1.1-1.3 2.5-1.7 1.4-.3 2.5-1 2.5-1.4 0-.4 1.1-1.1 2.5-1.4 1.4-.4 2.5-1.1 2.5-1.6s.6-.7 1.4-.4c.8.3 2.1-.5 3-1.8.9-1.2 1.6-1.9 1.6-1.4s.7.3 1.5-.4c1.3-1.1 1.5-9.7 1.5-66.6 0-57.5-.2-65.3-1.5-64.8-.8.4-1.7-.1-2.1-1-.3-.9-1-1.4-1.4-1.1-.5.3-1.3-.3-1.9-1.2-.8-1.4-1-1.4-1.1-.3 0 1-.5.7-1.6-.8-.8-1.2-2.4-2.2-3.5-2.2-1 0-1.9-.5-1.9-1 0-.6-.6-1-1.3-1-.7 0-2.3-.9-3.5-2-1.2-1.2-2.2-1.6-2.2-.9 0 .7-.9.2-2-1.1s-2-2-2-1.6c0 .7-4.7-2.1-6.8-4.1-.8-.7-1.8-1.1-2.3-.8-.5.4-.9.3-.9-.2 0-.4-1.4-1.4-3-2.1-1.8-.9-2.7-1.8-2.3-2.5.4-.7-.2-.5-1.2.3s-1.6 1-1.2.4c.4-.7-.8-1.9-3.1-3-2-.9-4.9-2.6-6.4-3.7s-3.1-1.6-3.9-1.2c-.8.5-1 .4-.5-.3.4-.7.1-1.2-.8-1.2-.8 0-1.6-.5-1.8-1-.2-.6-1.3-1.2-2.5-1.3-1.2 0-2.1-.6-2-1.2.1-.5-.4-.9-1-.8-.7.2-1.3-.2-1.3-.7 0-.6-.7-1-1.5-1s-1.5-.5-1.5-1.1c0-.5-.4-.8-.9-.5-.5.3-1.4-.1-2.1-.9-.7-.8-1.9-1.5-2.6-1.5-.8 0-1.4-.5-1.4-1 0-.6-.9-1-2.1-1-1.3 0-1.8-.4-1.3-1.3.4-.6.4-.9-.1-.5-.4.4-1.4.3-2.2-.3-.7-.6-1.3-.8-1.3-.5 0 .4-.7.1-1.5-.6-3.4-3.1-4.3-3.6-4.9-3.1-.3.4-.6.1-.6-.6s-.4-1-.9-.6c-.5.3-1.2.1-1.6-.5-.4-.6-1.1-.7-1.7-.4-.6.4-.8.2-.4-.4.4-.6-.8-1.6-2.8-2.3-1.9-.7-3.3-1.6-3-2.1.3-.4-.4-.8-1.5-.8-1.2 0-2.1-.5-2.1-1 0-.6-.7-1-1.5-1-1.2 0-1.3-.4-.5-1.9.7-1.4.6-2.1-.3-2.4-.6-.3-.7-.6-.2-.6 1.1-.1 1.1-7.3 0-9-.3-.6-.3-1.1.2-1.1 1.2 0 1-12.4-.2-13.2-.7-.5-.6-.8.1-.8 1.1 0 1.1-5.1-.1-6.9-.3-.6-.1-1.1.6-1.1.8 0 .8-.4-.1-1.5-1-1.2-1-1.5.1-1.5s1.1-.2-.1-1c-.8-.5-1-1-.4-1 1.1 0 1.1-4.6 0-5.7-.3-.3-.1-1.4.5-2.4.7-1.4.6-1.9-.3-1.9-.8 0-.9-.3-.3-.8 1-.7 1.6-17.4.5-16.7-.3.2-.3-2.1 0-5.1.4-3.3.2-5.5-.4-5.8-.6-.2-.5-.5.3-.5 1.1-.1 1.1-.4.1-1.6-.7-.8-.8-1.5-.3-1.5 1.1 0 1.1-2.9-.1-4.8-.4-.6-.3-1.2.2-1.2.9 0 .8-4.7-.2-5.7-.3-.3-.1-1.4.5-2.4.7-1.4.6-1.9-.3-1.9-.8 0-.9-.3-.3-.8 1.3-.9 1.5-17.3.2-16.5-.6.4-.7.1-.2-.7 1.3-2.1 1.5-6.1.2-5.3-.6.4-.8 0-.4-1 .4-1.1.2-1.4-.7-1.1-.8.3-1.7 0-2.1-.5-.3-.6-1.1-.9-1.6-.6-.5.4-.9.1-.9-.6s-.3-1-.6-.6c-.4.3-1.3-.1-2.1-.9s-1.9-1.1-2.5-.8c-.6.4-.8.3-.5-.2.3-.5-.8-1.7-2.4-2.7-1.8-1-2.8-1.2-2.4-.4.4.6 0 .4-.8-.5-.8-1-1.7-1.5-2-1.1-.4.3-.7.1-.7-.5 0-.7-.9-1.2-2-1.2s-1.9-.6-1.8-1.3c.2-.6-.5-1.1-1.4-.9-1 .2-1.8-.2-1.8-.8 0-.5-.7-1-1.5-1s-1.5-.5-1.5-1.1c0-.5-.4-.7-1-.4-.5.3-1 .1-1-.5s-.4-.8-1-.5c-.5.3-1 .2-1-.3s-2.9-2.4-6.5-4.2c-3.6-1.8-6.5-3.7-6.5-4.1 0-.5-.9-.9-2-.9s-2-.3-2-.8c0-.4-1.4-1.3-3-2-1.7-.8-2.8-1.8-2.4-2.3.3-.5.2-.9-.3-.8-2.3.4-4.1-.3-6.3-2.4-1.4-1.2-2.6-2.1-2.7-2-.9.9-3.3.1-3.1-1 .2-.7-.6-1.2-1.9-1.1-1.3.1-2-.3-1.7-.7.5-.8-1-1.3-2.8-1-.5 0-.8-.6-.8-1.4 0-.8-.6-1.2-1.4-.9-.8.3-2-.3-2.7-1.4-.7-1.1-1.8-1.8-2.4-1.6-.7.3-1.8-.2-2.5-1-.7-.9-1.6-1.3-2.1-1-.5.3-.9-.2-.9-1 0-1.6-1.1-2-3.9-1.7-.7.2-1-.2-.6-.8.3-.7-.2-1.1-1.4-1.1s-2.1-.5-2.1-1c0-.6-.6-1-1.3-1-.7 0-2.3-.9-3.5-2-1.2-1.2-2.2-1.8-2.2-1.4 0 .3-.7.1-1.5-.6s-1.5-.9-1.5-.6c0 .4-.7 0-1.6-.9-1.8-1.8-8.6-1.5-9.2.4-.2.6-1 1.1-1.8 1.1s-1.4.5-1.4 1.1c0 .5-.4.7-1 .4-.5-.3-1-.1-1 .5s-1.3 1.6-3 2.1c-1.6.6-3 1.6-3 2.2 0 .6-.3.7-.7.4-.3-.4-1.2.1-2 1.1-.8.9-1.2 1.1-.8.4 1-1.9-.1-1.4-3.1 1.3-1.4 1.3-3.1 2.3-3.8 2.2-.6-.1-1 .3-.9.9.1.8-.6 1-1.9.6-1.6-.4-1.9-.2-1.3.8.6.9.4 1.2-.6.8-1.6-.6-4.1 1.6-3.1 2.8.4.4.3.5-.3.2-1.5-.8-5.7 1-5 2.2.3.5 0 .7-.8.4-.8-.3-2 .2-2.7 1-.7.9-1.6 1.3-2.1 1-.5-.3-1.2.2-1.5 1-.3.9-.9 1.4-1.4 1.1-.4-.2-1.7.5-2.8 1.6-1.4 1.2-2.2 1.5-2.2.7 0-.7-.7-.2-1.6 1-.9 1.3-2.2 2.1-3 1.8-.8-.3-1.4.1-1.4 1.1 0 .9-.3 1.3-.6 1-1.1-1.1-4.5 1.3-3.8 2.6.5.9.4.9-.6 0-1.1-1-1.7-.8-3.1.8-1 1.1-2.1 2.1-2.6 2.1-1.8.1-3.9 1.3-5 2.7-.7.9-1.3 1.2-1.3.8 0-.4-.9-.3-2 .3s-1.8 1.4-1.6 1.8c.3.5-.5.9-1.6.9-1.2.1-2.4.6-2.7 1-.8 1.1-6.2 4.3-8.3 5-1 .3-1.8 1-1.8 1.5s-.5.6-1 .3c-.6-.3-1.3.1-1.6 1-.6 1.3-.8 1.4-1.5.3-.7-1-.9-.9-.9.5 0 1-.4 1.5-1 1.2-.5-.3-1-.1-1 .5s-.5.8-1 .5c-.6-.3-1.3 0-1.6.8-.7 1.9-5.5 1.3-6.6-.7-.5-.9-1.8-1.6-2.9-1.6-1.1 0-1.8-.4-1.5-.9.3-.5-.7-1.1-2.2-1.4-1.5-.3-3.8-1.5-5.1-2.6-1.3-1.1-2.8-1.8-3.2-1.5-.5.3-.9-.2-.9-1 0-1-.6-1.3-1.5-1-.8.4-1.5.1-1.5-.5s-.9-1.1-2-1.1-2-.5-2-1c0-.6-.7-1-1.6-1-.9 0-1.2-.5-.8-1.1.4-.7.1-1-.7-.7-.8.3-2-.2-2.7-1.1-1.1-1.3-1.2-1.3-.7-.1.4.8-.2.5-1.3-.7s-2.2-1.9-2.6-1.6c-.3.4-.6.1-.6-.6s-.4-1-.9-.7c-.5.4-1.1.2-1.3-.3-.1-.5-1-1.1-1.8-1.3-.8-.2-2.1-1-2.8-1.8-1.2-1.3-1.3-1.3-.7 0 .3.8-.7 0-2.3-1.8-2.1-2.4-3.2-3-3.7-2.1-.6.8-.4 1 .5.4s1.1-.4.5.5c-.7 1.1-1.2.9-2.3-.8-1.4-2.2-3.6-2.9-4.5-1.5-.2.5-.2.2-.1-.5.2-.7-.8-1.8-2.1-2.4-1.4-.6-2.5-1.5-2.5-2 0-.4-.3-.7-.7-.7-2 .3-3.4-.2-2.8-1.1.3-.6-.1-.7-.9-.4-.9.3-1.6.2-1.6-.3s-1.6-1.5-3.5-2.3c-1.9-.7-3.2-1.7-2.9-2.2.5-.7-1.8-1.2-3.8-.9-.5 0-.8-.4-.8-.9 0-.6-.7-1-1.5-1s-1.5-.7-1.5-1.6c0-1.4-.3-1.4-1.6-.4-1.2 1.1-1.5 1.1-1.2-.1.2-.8-.7-1.5-1.9-1.7-1.3-.2-2.3-.8-2.3-1.3s-.7-.9-1.5-.9-1.5-.5-1.5-1c0-.6-.7-1-1.6-1-.9 0-1.2-.5-.8-1.2.4-.6.3-.8-.4-.4-.6.3-1.6 0-2.4-.7-.7-.8-2.1-1.3-3.1-1.1-.9.1-1.7-.4-1.7-1.2 0-.8-.1-1.4-.2-1.4-6.7-1-7.6-1-9.8.8zM2.8 288.5c-.3.3-.9-.2-1.2-1.2-.6-1.4-.5-1.5.5-.6.7.7 1 1.5.7 1.8zm-.4 16.1c.3.8.2 1.2-.4.9-.6-.3-1-1-1-1.6 0-1.4.7-1.1 1.4.7zm0 12c.3.8.2 1.2-.4.9-.6-.3-1-1-1-1.6 0-1.4.7-1.1 1.4.7zm.4 19.9c-.3.3-.9-.2-1.2-1.2-.6-1.4-.5-1.5.5-.6.7.7 1 1.5.7 1.8zm0 12c-.3.3-.9-.2-1.2-1.2-.6-1.4-.5-1.5.5-.6.7.7 1 1.5.7 1.8zm0 12c-.3.3-.9-.2-1.2-1.2-.6-1.4-.5-1.5.5-.6.7.7 1 1.5.7 1.8zm-.4 16.1c.3.8.2 1.2-.4.9-.6-.3-1-1-1-1.6 0-1.4.7-1.1 1.4.7zm.1 17.3c.3.5.2 1.2-.3 1.5-.5.3-.9-.1-.9-.9 0-1.7.3-1.9 1.2-.6z"/></svg>